PathFileType	4	(X/Y/Z)	D:\TRACE\spot_10-12-23\spot_arm_body_motion_3_4-v60.trc
DataRate	CameraRate	NumFrames	NumMarkers	Units	OrigDataRate	OrigDataStartFrame	OrigNumFrames
100.00	100.00	      14	9	mm	100.00	6126	      7000
Frame#	Time	front left toe			Front right toe			aft left toe			aft right toe			Arm			FL body			FR body			AL Body			AR Body			
		X1	Y1	Z1	X2	Y2	Z2	X3	Y3	Z3	X4	Y4	Z4	X5	Y5	Z5	X6	Y6	Z6	X7	Y7	Z7	X8	Y8	Z8	X9	Y9	Z9	

6126	61.250	-201.57985	20.34951	-445.33423	201.37302	25.83998	-389.23395	-250.00841	15.00485	181.37865	183.28969	17.93686	178.54958	70.94392	816.64551	-744.58484	-108.89029	602.30896	-487.05600	43.08091	606.07520	-478.10507	-165.20555	573.99988	395.18936	-15.32895	571.43256	406.41763	
6127	61.260	-201.29874	20.54978	-445.17160	201.80115	26.12092	-389.14206	-249.71979	14.96423	181.40320	183.85011	17.65985	178.44312	69.16441	818.10352	-743.43237	-107.90902	601.93390	-487.36511	44.09025	605.83533	-478.68359	-164.15616	573.93896	394.91867	-14.11431	571.35144	406.02383	
6128	61.270	-201.13159	20.59862	-445.04605	201.97241	26.26532	-389.13287	-249.43607	14.85076	181.50937	184.33789	17.36386	178.39629	67.96326	819.29675	-742.38971	-107.31709	601.57343	-487.50919	44.00292	605.70142	-478.69266	-162.93367	573.66010	394.81271	-13.15193	571.17773	405.82855	
6129	61.280	-200.98238	20.61638	-444.85275	202.14107	26.44770	-389.16962	-249.03458	14.69668	181.74355	184.64485	17.29989	178.59828	66.95940	820.18945	-741.40302	-107.07407	601.46228	-487.43204	44.26680	605.93140	-479.18692	-161.28790	573.21124	394.89880	-11.43675	570.83875	405.76501	
6130	61.290	-200.86150	20.77936	-444.54770	202.18254	26.78947	-389.22629	-248.74069	14.77055	181.91557	184.97452	17.17780	178.66986	66.68070	820.58099	-740.58472	-106.82982	601.45850	-487.28268	45.27730	605.74738	-479.24902	-159.77985	572.86487	395.04559	-9.55851	570.34338	405.93323	
6131	61.300	-200.85004	21.07825	-444.36282	202.36627	27.24020	-389.18790	-248.49805	14.93154	182.07863	185.18181	16.95486	178.53496	66.35924	820.62860	-739.79193	-106.71088	601.60034	-487.03928	45.41881	605.90430	-478.91977	-157.97386	572.67401	395.58374	-7.95488	570.13995	405.83401	
6132	61.310	-200.76985	21.44994	-444.20398	202.48987	27.72494	-389.24222	-248.25829	15.21544	182.21916	185.34772	16.64357	178.41518	66.56527	820.44238	-739.26501	-106.53858	601.90649	-486.67090	45.40636	606.19507	-478.86487	-156.36523	572.47736	395.85266	-6.46157	570.16412	405.97955	
6133	61.320	-200.69496	21.67085	-444.07794	202.70848	28.00087	-389.17587	-247.95189	15.21991	182.35141	185.49606	16.36824	178.42342	67.18608	819.87170	-738.98700	-106.43510	602.18890	-486.29294	45.50736	606.40735	-478.75571	-154.76628	572.20813	396.58276	-4.62114	569.79944	406.18286	
6134	61.330	-200.57294	21.86182	-443.96494	202.89812	28.20308	-389.06580	-247.51808	15.02508	182.48521	185.86984	16.33799	178.62917	68.01342	819.20203	-738.56134	-106.09469	602.29559	-485.88211	45.80911	606.52380	-478.49518	-153.49823	571.99548	396.90897	-3.41758	569.36450	406.53503	
6135	61.340	-200.24493	22.15615	-443.79459	203.00970	28.31005	-388.98624	-247.15538	14.93182	182.60945	186.29469	15.91855	178.57530	68.67444	818.90729	-738.44611	-105.37939	602.55951	-485.37219	46.39019	606.72015	-477.88068	-152.29572	571.62720	397.42047	-2.26399	568.98663	406.99362	
6136	61.350	-199.39349	22.11739	-443.60367	203.21175	28.48003	-388.80640	-246.96152	15.02882	182.68806	186.37355	15.81259	178.74869	69.58552	818.49213	-738.42676	-104.64269	602.86591	-484.85434	47.36724	606.95758	-477.53290	-151.42250	571.26276	397.78607	-1.37860	568.63757	407.25925	
6137	61.360	-199.25653	22.46299	-443.64230	203.40790	28.53765	-388.68378	-246.94521	15.05113	182.79726	186.43597	15.93691	179.15494	70.32777	818.37811	-738.38452	-103.62839	603.34558	-484.40726	48.36996	607.14209	-476.95761	-150.81860	571.00885	398.24536	-0.69021	568.11627	407.92697	
6138	61.370	-199.06697	23.03027	-443.60233	203.16965	28.47041	-388.84360	-246.83611	14.88224	182.93452	186.58649	15.90582	179.35316	71.10198	818.14954	-738.47485	-102.37141	603.63391	-483.69046	49.53884	607.57452	-476.40164	-150.36325	570.55304	398.70245	0.34268	567.56604	408.71729	
6139	61.380	-198.66504	23.42973	-443.47006	203.54829	28.66887	-388.56674	-246.75262	14.55799	182.98151	186.83003	15.87722	179.55394	71.81572	818.05347	-738.59473	-101.14085	603.81287	-483.18286	50.90949	607.76459	-475.90054	-149.62881	570.05579	399.34985	0.75276	567.09973	409.27548	
